<?xml version="1.0" encoding="UTF-8" standalone="no"?>
<svg
   xmlns:dc="http://purl.org/dc/elements/1.1/"
   xmlns:cc="http://creativecommons.org/ns#"
   xmlns:rdf="http://www.w3.org/1999/02/22-rdf-syntax-ns#"
   xmlns:svg="http://www.w3.org/2000/svg"
   xmlns="http://www.w3.org/2000/svg"
   xmlns:sodipodi="http://sodipodi.sourceforge.net/DTD/sodipodi-0.dtd"
   xmlns:inkscape="http://www.inkscape.org/namespaces/inkscape"
   height="682pt"
   viewBox="-21 -47 682.66669 682"
   width="682pt"
   version="1.1"
   id="svg10"
   sodipodi:docname="chat_new.svg"
   inkscape:version="0.92.3 (2405546, 2018-03-11)">
  <metadata
     id="metadata16">
    <rdf:RDF>
      <cc:Work
         rdf:about="">
        <dc:format>image/svg+xml</dc:format>
        <dc:type
           rdf:resource="http://purl.org/dc/dcmitype/StillImage" />
        <dc:title></dc:title>
      </cc:Work>
    </rdf:RDF>
  </metadata>
  <defs
     id="defs14" />
  <sodipodi:namedview
     pagecolor="#ffffff"
     bordercolor="#666666"
     borderopacity="1"
     objecttolerance="10"
     gridtolerance="10"
     guidetolerance="10"
     inkscape:pageopacity="0"
     inkscape:pageshadow="2"
     inkscape:window-width="1920"
     inkscape:window-height="1140"
     id="namedview12"
     showgrid="false"
     inkscape:zoom="0.25953079"
     inkscape:cx="-1645.2825"
     inkscape:cy="454.66667"
     inkscape:window-x="1920"
     inkscape:window-y="0"
     inkscape:window-maximized="1"
     inkscape:current-layer="svg10" />
  <path
     d="M 512.56106,76.769666 H 130.33159 c -39.963715,0 -72.478475,37.138304 -72.478475,82.801184 v 267.23179 c 0,45.55994 32.37318,82.63943 72.221055,82.80118 v 121.26649 l 152.5475,-121.26649 h 229.93939 c 39.96372,0 72.47848,-37.14566 72.47848,-82.80118 V 159.57085 c 0,-45.66288 -32.51476,-82.801184 -72.47848,-82.801184 z m 41.58865,350.032974 c 0,26.19495 -18.65617,47.51188 -41.58865,47.51188 H 272.92998 L 160.964,563.3244 v -89.00988 h -30.63241 c -22.93248,0 -41.588645,-21.31693 -41.588645,-47.51188 V 159.57085 c 0,-26.2023 18.656165,-47.51189 41.588645,-47.51189 h 382.22947 c 22.93248,0 41.58865,21.30959 41.58865,47.51189 z m 0,0"
     id="path2"
     style="fill:#ffe393;fill-opacity:1;stroke-width:0.8804363"
     inkscape:connector-curvature="0" />
</svg>
