<?xml version="1.0" encoding="UTF-8" standalone="no"?>
<svg
   xmlns:dc="http://purl.org/dc/elements/1.1/"
   xmlns:cc="http://creativecommons.org/ns#"
   xmlns:rdf="http://www.w3.org/1999/02/22-rdf-syntax-ns#"
   xmlns:svg="http://www.w3.org/2000/svg"
   xmlns="http://www.w3.org/2000/svg"
   xmlns:sodipodi="http://sodipodi.sourceforge.net/DTD/sodipodi-0.dtd"
   xmlns:inkscape="http://www.inkscape.org/namespaces/inkscape"
   viewBox="0 0 22 18"
   width="25"
   height="19"
   version="1.1"
   id="svg10"
   sodipodi:docname="close_icon_dark.svg"
   style="fill:#000000"
   inkscape:version="0.92.3 (2405546, 2018-03-11)">
  <metadata
     id="metadata16">
    <rdf:RDF>
      <cc:Work
         rdf:about="">
        <dc:format>image/svg+xml</dc:format>
        <dc:type
           rdf:resource="http://purl.org/dc/dcmitype/StillImage" />
        <dc:title></dc:title>
      </cc:Work>
    </rdf:RDF>
  </metadata>
  <defs
     id="defs14" />
  <sodipodi:namedview
     pagecolor="#ffffff"
     bordercolor="#666666"
     borderopacity="1"
     objecttolerance="10"
     gridtolerance="10"
     guidetolerance="10"
     inkscape:pageopacity="0"
     inkscape:pageshadow="2"
     inkscape:window-width="1920"
     inkscape:window-height="1140"
     id="namedview12"
     showgrid="false"
     fit-margin-top="0"
     fit-margin-left="0"
     fit-margin-right="0"
     fit-margin-bottom="0"
     inkscape:zoom="13.111111"
     inkscape:cx="-14.059322"
     inkscape:cy="6.75"
     inkscape:window-x="1920"
     inkscape:window-y="0"
     inkscape:window-maximized="1"
     inkscape:current-layer="svg10" />
  <path
     d="M 20.433541,16.750312 1.5664585,16.678055 V 1.3496878 L 20.289028,1.2774309 Z M 20,0 H 2 C 0.9,0 0,0.9 0,2 v 14 c 0,1.1 0.9,2 2,2 h 18 c 1.1,0 2,-0.9 2,-2 V 2 C 22,0.9 21.1,0 20,0 Z"
     id="path2"
     inkscape:connector-curvature="0"
     sodipodi:nodetypes="cccccsssssssss"
     style="fill:#ffffff;fill-opacity:1" />
  <path
     d="M 20,16.1 H 2 V 2 H 20 Z M 20,0 H 2 C 0.9,0 0,0.9 0,2 v 14 c 0,1.1 0.9,2 2,2 h 18 c 1.1,0 2,-0.9 2,-2 V 2 C 22,0.9 21.1,0 20,0 Z"
     id="path4"
     inkscape:connector-curvature="0"
     style="fill:none" />
  <path
     d="M 13.879028,5.3612846 10.855486,8.0235415 8.0487154,5.2167707 7.2890276,5.9042016 10.240312,8.9277431 7.3612846,11.879028 8.1209723,12.638715 11.144514,9.6874309 14.095798,12.494202 14.78323,11.806771 11.687431,8.9277431 14.566459,6.0487154 Z"
     id="path6"
     inkscape:connector-curvature="0"
     sodipodi:nodetypes="ccccccccccccc"
     style="fill:#ffffff;fill-opacity:1" />
  <path
     d="M -1,-3 H 23 V 21 H -1 Z"
     id="path8"
     inkscape:connector-curvature="0"
     style="fill:none" />
</svg>
