<?xml version="1.0" encoding="UTF-8" standalone="no"?>
<svg
   xmlns:dc="http://purl.org/dc/elements/1.1/"
   xmlns:cc="http://creativecommons.org/ns#"
   xmlns:rdf="http://www.w3.org/1999/02/22-rdf-syntax-ns#"
   xmlns:svg="http://www.w3.org/2000/svg"
   xmlns="http://www.w3.org/2000/svg"
   xmlns:sodipodi="http://sodipodi.sourceforge.net/DTD/sodipodi-0.dtd"
   xmlns:inkscape="http://www.inkscape.org/namespaces/inkscape"
   enable-background="new 0 0 24 24"
   height="512"
   viewBox="0 0 512 512"
   width="512"
   version="1.1"
   id="svg8"
   sodipodi:docname="overlay_settings.svg"
   inkscape:version="0.92.5 (2060ec1f9f, 2020-04-08)">
  <metadata
     id="metadata14">
    <rdf:RDF>
      <cc:Work
         rdf:about="">
        <dc:format>image/svg+xml</dc:format>
        <dc:type
           rdf:resource="http://purl.org/dc/dcmitype/StillImage" />
        <dc:title></dc:title>
      </cc:Work>
    </rdf:RDF>
  </metadata>
  <defs
     id="defs12" />
  <sodipodi:namedview
     pagecolor="#ffffff"
     bordercolor="#666666"
     borderopacity="1"
     objecttolerance="10"
     gridtolerance="10"
     guidetolerance="10"
     inkscape:pageopacity="0"
     inkscape:pageshadow="2"
     inkscape:window-width="1920"
     inkscape:window-height="1140"
     id="namedview10"
     showgrid="false"
     inkscape:zoom="0.61458333"
     inkscape:cx="16.649984"
     inkscape:cy="256.46689"
     inkscape:window-x="1920"
     inkscape:window-y="0"
     inkscape:window-maximized="1"
     inkscape:current-layer="g6"
     fit-margin-top="0"
     fit-margin-left="0"
     fit-margin-right="0"
     fit-margin-bottom="0" />
  <g
     id="g6"
     transform="translate(0,488)">
    <path
       d="m 422.45394,-211.1292 c 0.93217,-7.21407 1.39825,-14.66859 1.39825,-22.60403 0,-7.69499 -0.46608,-15.39 -1.63129,-22.60403 l 47.30787,-37.99405 c 4.1948,-3.36656 5.36003,-9.8592 2.79654,-14.66858 l -44.74441,-79.83557 c -2.79653,-5.2903 -8.62264,-6.97357 -13.74959,-5.2903 l -55.69748,23.08498 c -11.65221,-9.13779 -24.00352,-16.8328 -37.75311,-22.60404 l -8.38956,-61.07901 c -0.93219,-5.77124 -5.59306,-9.85921 -11.18612,-9.85921 H 211.3162 c -5.59303,0 -10.02088,4.08797 -10.95304,9.85921 l -8.38958,61.07901 c -13.74961,5.77124 -26.33396,13.70671 -37.7531,22.60404 l -55.697499,-23.08498 c -5.126941,-1.92376 -10.953023,0 -13.749559,5.2903 l -44.511374,79.83557 c -2.79652,5.04982 -1.864346,11.30202 2.796531,14.66858 l 47.307894,37.99405 c -1.165232,7.21403 -2.097399,15.14951 -2.097399,22.60403 0,7.45451 0.466083,15.38996 1.631304,22.60403 l -47.307891,37.99404 c -4.194785,3.36656 -5.360003,9.85921 -2.79652,14.66857 l 44.744402,79.835556 c 2.796547,5.290317 8.622618,6.973594 13.749607,5.290317 l 55.697454,-23.084984 c 11.65219,9.1378 24.00351,16.832792 37.75309,22.604036 l 8.3896,61.079006 c 1.1652,5.7712452 5.59305,9.8592082 11.18608,9.8592082 h 89.48884 c 5.59306,0 10.25393,-4.087963 10.95305,-9.8592082 l 8.38958,-61.079006 c 13.74959,-5.771244 26.33395,-13.466236 37.75312,-22.604036 l 55.69747,23.084984 c 5.12696,1.923752 10.95304,0 13.7496,-5.290317 l 44.74439,-79.835556 c 2.79655,-5.29029 1.63132,-11.30201 -2.79652,-14.66857 z m -166.39332,63.96463 c -46.14268,0 -83.89577,-38.95591 -83.89577,-86.56866 0,-47.61276 37.75309,-86.56869 83.89577,-86.56869 46.1427,0 83.89578,38.95593 83.89578,86.56869 0,47.61275 -37.75308,86.56866 -83.89578,86.56866 z"
       id="path4"
       style="fill:#65687f;fill-opacity:1;stroke-width:23.6727066"
       inkscape:connector-curvature="0" />
  </g>
</svg>
