<?xml version="1.0" encoding="UTF-8" standalone="no"?>
<svg
   xmlns:dc="http://purl.org/dc/elements/1.1/"
   xmlns:cc="http://creativecommons.org/ns#"
   xmlns:rdf="http://www.w3.org/1999/02/22-rdf-syntax-ns#"
   xmlns:svg="http://www.w3.org/2000/svg"
   xmlns="http://www.w3.org/2000/svg"
   xmlns:sodipodi="http://sodipodi.sourceforge.net/DTD/sodipodi-0.dtd"
   xmlns:inkscape="http://www.inkscape.org/namespaces/inkscape"
   height="512pt"
   viewBox="0 0 512 512"
   width="512pt"
   version="1.1"
   id="svg20"
   sodipodi:docname="overlay_share_desktop.svg"
   inkscape:version="0.92.5 (2060ec1f9f, 2020-04-08)">
  <metadata
     id="metadata26">
    <rdf:RDF>
      <cc:Work
         rdf:about="">
        <dc:format>image/svg+xml</dc:format>
        <dc:type
           rdf:resource="http://purl.org/dc/dcmitype/StillImage" />
        <dc:title></dc:title>
      </cc:Work>
    </rdf:RDF>
  </metadata>
  <defs
     id="defs24" />
  <sodipodi:namedview
     pagecolor="#ffffff"
     bordercolor="#666666"
     borderopacity="1"
     objecttolerance="10"
     gridtolerance="10"
     guidetolerance="10"
     inkscape:pageopacity="0"
     inkscape:pageshadow="2"
     inkscape:window-width="1920"
     inkscape:window-height="1140"
     id="namedview22"
     showgrid="false"
     inkscape:zoom="0.69140625"
     inkscape:cx="-227.79661"
     inkscape:cy="296.70745"
     inkscape:window-x="1920"
     inkscape:window-y="0"
     inkscape:window-maximized="1"
     inkscape:current-layer="svg20" />
  <path
     inkscape:connector-curvature="0"
     d="m 233.9114,380.37754 v 100.17309 h 51.7704 V 380.37754 Z m 0,0"
     style="fill:#3a3d51;fill-opacity:1;fill-rule:nonzero;stroke:none;stroke-width:1.44214475"
     id="path2" />
  <path
     inkscape:connector-curvature="0"
     d="m 285.6818,493.07296 c -7.14785,0 -12.94404,-5.60735 -12.94404,-12.52233 V 380.37754 c 0,-6.91497 5.79619,-12.52232 12.94404,-12.52232 7.14786,0 12.94401,5.60735 12.94401,12.52232 v 100.17309 c 0,6.91498 -5.79615,12.52233 -12.94401,12.52233 z m 0,0"
     style="fill:#3a3d51;fill-opacity:1;fill-rule:nonzero;stroke:none;stroke-width:1.44214475"
     id="path4" />
  <path
     inkscape:connector-curvature="0"
     d="m 233.9114,493.07296 c -7.14786,0 -12.94402,-5.60735 -12.94402,-12.52233 V 380.37754 c 0,-6.91497 5.79616,-12.52232 12.94402,-12.52232 7.14785,0 12.94404,5.60735 12.94404,12.52232 v 100.17309 c 0,6.91498 -5.79619,12.52233 -12.94404,12.52233 z m 0,0"
     style="fill:#3a3d51;fill-opacity:1;fill-rule:nonzero;stroke:none;stroke-width:1.44214475"
     id="path6" />
  <path
     inkscape:connector-curvature="0"
     d="m 143.30892,468.0283 h 232.97537 v 25.04466 H 143.30892 Z m 0,0"
     style="fill:#3a3d51;fill-opacity:1;fill-rule:nonzero;stroke:none;stroke-width:1.44214475"
     id="path8" />
  <path
     inkscape:connector-curvature="0"
     d="m 208.02334,205.07603 c 0,20.74494 -17.3828,37.56698 -38.8321,37.56698 -21.44355,0 -38.82636,-16.82204 -38.82636,-37.56698 0,-20.74498 17.38281,-37.56699 38.82636,-37.56699 21.4493,0 38.8321,16.82201 38.8321,37.56699 z m 0,0"
     style="fill:#f0f0f0;fill-opacity:1;fill-rule:nonzero;stroke:none;stroke-width:1.44214475"
     id="path10" />
  <path
     inkscape:connector-curvature="0"
     d="M 367.95084,137.46098 C 386.51921,127.08297 392.87668,104.10505 382.14921,86.141579 371.42168,68.178147 347.67569,62.02781 329.10729,72.40582 c -18.55693,10.366943 -24.92011,33.31716 -14.22697,51.2806 10.71033,17.97454 34.45059,24.15258 53.03043,13.79117 0.0172,-0.005 0.0286,-0.0121 0.0401,-0.0167 z m 0,0"
     style="fill:#f0f0f0;fill-opacity:1;fill-rule:nonzero;stroke:none;stroke-width:1.44214475"
     id="path12" />
  <path
     inkscape:connector-curvature="0"
     d="m 367.95084,272.69105 c -18.57982,-10.35584 -42.32586,-4.17779 -53.03041,13.79674 -10.70462,17.97453 -4.32427,40.94136 14.2556,51.30275 18.56838,10.35033 42.29147,4.1889 53.00752,-13.75793 10.72751,-17.96345 4.37004,-40.94139 -14.19835,-51.31942 -0.013,-0.005 -0.0229,-0.0165 -0.0342,-0.0221 z m 0,0"
     style="fill:#f0f0f0;fill-opacity:1;fill-rule:nonzero;stroke:none;stroke-width:1.44214475"
     id="path14" />
  <path
     inkscape:connector-curvature="0"
     d="M 243.52256,29.774489 V 154.47695 l 59.19085,-30.79053 c -11.49617,-17.97454 -4.644,-40.946895 15.30979,-51.302775 19.95991,-10.355835 45.45569,-4.183324 56.95189,13.796719 11.49001,17.957926 4.65629,40.908136 -15.27288,51.280616 -19.94149,10.37248 -45.44957,4.22768 -56.96421,-13.74132 -0.014,-0.0121 -0.0184,-0.0221 -0.0246,-0.0333 l -59.19085,30.79052 v 101.19816 l 59.19085,30.79051 c 11.52077,-17.96345 37.02271,-24.11378 56.97035,-13.74131 19.94148,10.37801 26.76905,33.35593 15.24829,51.31938 -11.50849,17.95236 -36.98583,24.10824 -56.92731,13.75793 -19.95378,-10.35585 -26.81211,-33.32267 -15.31594,-51.30277 0.014,-0.0121 0.0185,-0.0221 0.0246,-0.0333 l -59.1847,-30.79034 v 124.70245 h 236.3021 V 29.774489 Z m 0,0"
     style="fill:#65687f;fill-opacity:1;fill-rule:nonzero;stroke:none;stroke-width:1.4945153"
     id="path24" />
  <path
     inkscape:connector-curvature="0"
     d="m 202.84572,223.85951 56.94803,31.81559 V 154.47695 l -56.94803,31.81557 56.94803,-31.81557 V 29.774489 H 39.762405 V 380.37754 H 259.79375 V 255.6751 Z m -33.65448,18.7835 c -21.44355,0 -38.82636,-16.82204 -38.82636,-37.56698 0,-20.74498 17.38281,-37.56699 38.82636,-37.56699 21.4493,0 38.8321,16.82201 38.8321,37.56699 0,20.74494 -17.3828,37.56698 -38.8321,37.56698 z m 0,0"
     style="fill:#65687f;fill-opacity:1;fill-rule:nonzero;stroke:none;stroke-width:1.44214475"
     id="path26" />
  <path
     inkscape:connector-curvature="0"
     d="m 202.84572,198.81486 c -7.14786,0 -12.94404,-5.60736 -12.94404,-12.52234 0,-4.47147 2.46855,-8.60495 6.47204,-10.84346 l 112.10332,-62.60609 c 6.21427,-3.4187 14.11242,-1.31872 17.64625,4.6931 3.49947,5.95642 1.40323,13.52521 -4.70222,16.99381 l -112.10331,62.60609 c -1.97025,1.10263 -4.19823,1.67889 -6.47204,1.67889 z m 0,0"
     style="fill:#f0f0f0;fill-opacity:1;fill-rule:nonzero;stroke:none;stroke-width:1.44214475"
     id="path32" />
  <path
     inkscape:connector-curvature="0"
     d="m 314.90896,298.98794 c -2.27379,0.005 -4.50753,-0.57624 -6.47202,-1.67888 L 196.33362,234.70297 c -6.21427,-3.41871 -8.38497,-11.06511 -4.85688,-17.07692 3.53384,-6.01182 11.43773,-8.11735 17.65201,-4.69863 0.0456,0.0276 0.0976,0.0555 0.14883,0.0831 L 321.3809,275.6222 c 6.19138,3.4575 8.31052,11.11495 4.73658,17.10463 -2.31385,3.87305 -6.58654,6.26114 -11.2086,6.26114 z m 0,0"
     style="fill:#f0f0f0;fill-opacity:1;fill-rule:nonzero;stroke:none;stroke-width:1.44214475"
     id="path34" />
</svg>
