<?xml version="1.0" encoding="UTF-8" standalone="no"?>
<!-- Generator: Adobe Illustrator 18.1.1, SVG Export Plug-In . SVG Version: 6.00 Build 0)  -->

<svg
   xmlns:dc="http://purl.org/dc/elements/1.1/"
   xmlns:cc="http://creativecommons.org/ns#"
   xmlns:rdf="http://www.w3.org/1999/02/22-rdf-syntax-ns#"
   xmlns:svg="http://www.w3.org/2000/svg"
   xmlns="http://www.w3.org/2000/svg"
   xmlns:sodipodi="http://sodipodi.sourceforge.net/DTD/sodipodi-0.dtd"
   xmlns:inkscape="http://www.inkscape.org/namespaces/inkscape"
   version="1.1"
   id="Capa_1"
   x="0px"
   y="0px"
   viewBox="0 0 512.00001 512.00001"
   xml:space="preserve"
   sodipodi:docname="overlay_stop_share.svg"
   inkscape:version="0.92.5 (2060ec1f9f, 2020-04-08)"
   width="512"
   height="512"><metadata
   id="metadata43"><rdf:RDF><cc:Work
       rdf:about=""><dc:format>image/svg+xml</dc:format><dc:type
         rdf:resource="http://purl.org/dc/dcmitype/StillImage" /><dc:title></dc:title></cc:Work></rdf:RDF></metadata><defs
   id="defs41" /><sodipodi:namedview
   pagecolor="#ffffff"
   bordercolor="#666666"
   borderopacity="1"
   objecttolerance="10"
   gridtolerance="10"
   guidetolerance="10"
   inkscape:pageopacity="0"
   inkscape:pageshadow="2"
   inkscape:window-width="1920"
   inkscape:window-height="1140"
   id="namedview39"
   showgrid="false"
   inkscape:zoom="0.69416475"
   inkscape:cx="217.54377"
   inkscape:cy="410.91403"
   inkscape:window-x="1920"
   inkscape:window-y="0"
   inkscape:window-maximized="1"
   inkscape:current-layer="g6" />
<g
   id="g6"
   transform="translate(0,481.95)">
	<path
   style="fill:#c45252;fill-opacity:1;stroke-width:19.2183609"
   d="m 332.71802,-307.18256 h -159.2756 c -3.81331,0 -6.94423,2.74206 -6.94423,6.29377 v 147.62768 c 0,3.47813 3.11084,6.33059 6.94423,6.33059 h 159.2756 c 3.81333,0 6.90413,-2.83406 6.90413,-6.33059 v -147.62768 c -0.0216,-3.53333 -3.0908,-6.29377 -6.90413,-6.29377 z"
   id="path2"
   inkscape:connector-curvature="0" />
	<path
   style="fill:#c45252;fill-opacity:1;stroke-width:15.75100422"
   d="m 254.11367,-456.70386 c -133.11649,0 -241.060063,104.00695 -241.060063,232.33789 0,128.330927 107.943573,232.337889 241.060063,232.337889 133.13258,0 241.02802,-104.006962 241.02802,-232.337889 0,-128.33094 -107.89544,-232.33789 -241.02802,-232.33789 z m 0,425.862601 c -110.89564,0 -200.805836,-86.657001 -200.805836,-193.524711 0,-106.91409 89.910196,-193.55564 200.805836,-193.55564 110.91173,0 200.77379,86.64155 200.77379,193.55564 0,106.86771 -89.86206,193.524711 -200.77379,193.524711 z"
   id="path4"
   inkscape:connector-curvature="0" />
</g>
<g
   id="g8"
   transform="translate(0,481.95)">
</g>
<g
   id="g10"
   transform="translate(0,481.95)">
</g>
<g
   id="g12"
   transform="translate(0,481.95)">
</g>
<g
   id="g14"
   transform="translate(0,481.95)">
</g>
<g
   id="g16"
   transform="translate(0,481.95)">
</g>
<g
   id="g18"
   transform="translate(0,481.95)">
</g>
<g
   id="g20"
   transform="translate(0,481.95)">
</g>
<g
   id="g22"
   transform="translate(0,481.95)">
</g>
<g
   id="g24"
   transform="translate(0,481.95)">
</g>
<g
   id="g26"
   transform="translate(0,481.95)">
</g>
<g
   id="g28"
   transform="translate(0,481.95)">
</g>
<g
   id="g30"
   transform="translate(0,481.95)">
</g>
<g
   id="g32"
   transform="translate(0,481.95)">
</g>
<g
   id="g34"
   transform="translate(0,481.95)">
</g>
<g
   id="g36"
   transform="translate(0,481.95)">
</g>
</svg>