<?xml version="1.0" encoding="UTF-8" standalone="no"?>
<svg
   xmlns:osb="http://www.openswatchbook.org/uri/2009/osb"
   xmlns:dc="http://purl.org/dc/elements/1.1/"
   xmlns:cc="http://creativecommons.org/ns#"
   xmlns:rdf="http://www.w3.org/1999/02/22-rdf-syntax-ns#"
   xmlns:svg="http://www.w3.org/2000/svg"
   xmlns="http://www.w3.org/2000/svg"
   xmlns:sodipodi="http://sodipodi.sourceforge.net/DTD/sodipodi-0.dtd"
   xmlns:inkscape="http://www.inkscape.org/namespaces/inkscape"
   height="512pt"
   viewBox="0 0 512 512"
   width="512pt"
   version="1.1"
   id="svg20"
   sodipodi:docname="overlay_video_off.svg"
   inkscape:version="0.92.5 (2060ec1f9f, 2020-04-08)">
  <metadata
     id="metadata26">
    <rdf:RDF>
      <cc:Work
         rdf:about="">
        <dc:format>image/svg+xml</dc:format>
        <dc:type
           rdf:resource="http://purl.org/dc/dcmitype/StillImage" />
        <dc:title></dc:title>
      </cc:Work>
    </rdf:RDF>
  </metadata>
  <defs
     id="defs24">
    <linearGradient
       id="linearGradient2295"
       osb:paint="solid">
      <stop
         style="stop-color:#dc9e9e;stop-opacity:1;"
         offset="0"
         id="stop2293" />
    </linearGradient>
  </defs>
  <sodipodi:namedview
     pagecolor="#ffffff"
     bordercolor="#666666"
     borderopacity="1"
     objecttolerance="10"
     gridtolerance="10"
     guidetolerance="10"
     inkscape:pageopacity="0"
     inkscape:pageshadow="2"
     inkscape:window-width="1920"
     inkscape:window-height="1140"
     id="namedview22"
     showgrid="false"
     inkscape:zoom="0.69140625"
     inkscape:cx="-368.08854"
     inkscape:cy="205.22008"
     inkscape:window-x="1920"
     inkscape:window-y="0"
     inkscape:window-maximized="1"
     inkscape:current-layer="svg20" />
  <path
     d="m 386.37509,152.85865 v 223.6386 c 0,36.42831 -24.1618,65.96153 -53.9646,65.96153 H 64.423015 c -29.802805,0 -53.964613,-29.53322 -53.964613,-65.96153 v -223.6386 c 0,-36.4283 24.161808,-65.961521 53.964613,-65.961521 H 332.41049 c 29.8028,0 53.9646,29.533221 53.9646,65.961521 z m 0,0"
     id="path2"
     inkscape:connector-curvature="0"
     style="fill:#3a3d51;stroke-width:1.72601938" />
  <path
     d="m 499.37209,150.041 v 236.12425 c 0,12.97763 -11.44057,21.13244 -20.67964,14.75171 L 397.7425,345.01104 386.37509,337.15438 V 199.03695 l 11.36741,-7.85665 80.94995,-55.89099 c 9.23907,-6.37327 20.67964,1.78152 20.67964,14.75169 z m 0,0"
     id="path4"
     inkscape:connector-curvature="0"
     style="fill:#65687f;stroke-width:1.72601938" />
  <path
     d="M 397.74798,255.75368 V 191.1981 l -11.36678,7.85609 -16.31841,68.90102 16.3123,69.1992 v 0.007 l 5.6834,3.92803 5.68949,3.92805 80.93949,55.90196 c 9.23858,6.38028 20.67851,-1.7814 20.67851,-14.75065 v -80.52827 l -75.72566,-13.34939 c -14.86097,-2.61633 -25.89234,-18.18689 -25.89234,-36.53766 z m 0,0"
     id="path6"
     inkscape:connector-curvature="0"
     style="fill:#3a3d51;stroke-width:1.72591186" />
  <path
     d="m 386.37509,152.85865 v 223.6386 c 0,36.42831 -24.1618,65.96153 -53.9646,65.96153 H 111.19153 c -29.802797,0 -53.964606,-29.53322 -53.964606,-65.96153 v -223.6386 c 0,-36.4283 24.161809,-65.961521 53.964606,-65.961521 h 221.21896 c 29.8028,0 53.9646,29.533221 53.9646,65.961521 z m 0,0"
     id="path8"
     inkscape:connector-curvature="0"
     style="fill:#65687f;stroke-width:1.72601938" />
  <path
     d="m 171.46128,264.69054 c 0,28.33113 -18.78811,51.29565 -41.96682,51.29565 -23.17872,0 -41.966826,-22.96452 -41.966826,-51.29565 0,-28.3311 18.788106,-51.29563 41.966826,-51.29563 23.17871,0 41.96682,22.96453 41.96682,51.29563 z m 0,0"
     id="path10-9"
     inkscape:connector-curvature="0"
     style="fill:#ffffff;stroke-width:1.72591186" />
  <path
     d="m 129.49446,330.94555 c -29.886562,0 -54.199528,-29.72494 -54.199528,-66.25501 0,-36.53006 24.312966,-66.24756 54.199528,-66.24756 29.88659,0 54.20562,29.7175 54.20562,66.24756 0,36.53007 -24.31903,66.25501 -54.20562,66.25501 z m 0,-102.59875 c -16.39158,0 -29.734132,16.30848 -29.734132,36.34374 0,20.04271 13.342552,36.34373 29.734132,36.34373 16.39767,0 29.73413,-16.30102 29.73413,-36.34373 0,-20.03526 -13.33646,-36.34374 -29.73413,-36.34374 z m 0,0"
     id="path12"
     inkscape:connector-curvature="0"
     style="fill:#3a3d51;stroke-width:1.72591186" />
  <path
     d="m 315.64373,264.69054 c 0,28.33113 -18.79419,51.29565 -41.97292,51.29565 -23.17261,0 -41.96682,-22.96452 -41.96682,-51.29565 0,-28.3311 18.79421,-51.29563 41.96682,-51.29563 23.17873,0 41.97292,22.96453 41.97292,51.29563 z m 0,0"
     id="path14-8"
     inkscape:connector-curvature="0"
     style="fill:#ffffff;stroke-width:1.72591186" />
  <path
     d="m 273.67081,330.94555 c -29.88657,0 -54.19952,-29.72494 -54.19952,-66.25501 0,-36.53006 24.31295,-66.24756 54.19952,-66.24756 29.88658,0 54.20563,29.7175 54.20563,66.24756 0,36.53007 -24.31905,66.25501 -54.20563,66.25501 z m 0,-102.59875 c -16.39156,0 -29.73413,16.30848 -29.73413,36.34374 0,20.04271 13.34257,36.34373 29.73413,36.34373 16.39768,0 29.73415,-16.30102 29.73415,-36.34373 0,-20.03526 -13.33647,-36.34374 -29.73415,-36.34374 z m 0,0"
     id="path16"
     inkscape:connector-curvature="0"
     style="fill:#3a3d51;stroke-width:1.72591186" />
  <path
     d="m296.589844 256c0 14.847656-12.039063 26.882812-26.886719 26.882812-14.84375 0-26.882813-12.035156-26.882813-26.882812s12.039063-26.882812 26.882813-26.882812c14.847656 0 26.886719 12.035156 26.886719 26.882812zm0 0"
     id="path14"
     fill="#fff" />
  <path
     style="fill:#f9a3a3;fill-opacity:1;stroke:#dc9e9e;stroke-width:59.99999821;stroke-linecap:butt;stroke-linejoin:miter;stroke-miterlimit:4;stroke-dasharray:none;stroke-opacity:1"
     d="M 31.132564,33.302828 484.12165,481.9514"
     id="path833"
     inkscape:connector-curvature="0" />
</svg>
