<?xml version="1.0" encoding="UTF-8" standalone="no"?>
<!-- Generator: Adobe Illustrator 18.1.1, SVG Export Plug-In . SVG Version: 6.00 Build 0)  -->

<svg
   xmlns:dc="http://purl.org/dc/elements/1.1/"
   xmlns:cc="http://creativecommons.org/ns#"
   xmlns:rdf="http://www.w3.org/1999/02/22-rdf-syntax-ns#"
   xmlns:svg="http://www.w3.org/2000/svg"
   xmlns="http://www.w3.org/2000/svg"
   xmlns:sodipodi="http://sodipodi.sourceforge.net/DTD/sodipodi-0.dtd"
   xmlns:inkscape="http://www.inkscape.org/namespaces/inkscape"
   version="1.1"
   id="Capa_1"
   x="0px"
   y="0px"
   viewBox="0 0 30.05 30.05"
   style="enable-background:new 0 0 30.05 30.05;"
   xml:space="preserve"
   sodipodi:docname="overlay_stop_share.svg"
   inkscape:version="0.92.5 (2060ec1f9f, 2020-04-08)"><metadata
   id="metadata43"><rdf:RDF><cc:Work
       rdf:about=""><dc:format>image/svg+xml</dc:format><dc:type
         rdf:resource="http://purl.org/dc/dcmitype/StillImage" /><dc:title></dc:title></cc:Work></rdf:RDF></metadata><defs
   id="defs41" /><sodipodi:namedview
   pagecolor="#ffffff"
   bordercolor="#666666"
   borderopacity="1"
   objecttolerance="10"
   gridtolerance="10"
   guidetolerance="10"
   inkscape:pageopacity="0"
   inkscape:pageshadow="2"
   inkscape:window-width="1920"
   inkscape:window-height="1140"
   id="namedview39"
   showgrid="false"
   inkscape:zoom="7.8535776"
   inkscape:cx="-6.7074424"
   inkscape:cy="15.025"
   inkscape:window-x="1920"
   inkscape:window-y="0"
   inkscape:window-maximized="1"
   inkscape:current-layer="g6" />
<g
   id="g6">
	<path
   style="fill:#c45252;fill-opacity:1;stroke-width:1.22013581"
   d="M 19.92532,9.669356 H 9.997851 c -0.2376788,0 -0.4328255,0.1773237 -0.4328255,0.40701 v 9.546896 c 0,0.224926 0.1938959,0.409391 0.4328255,0.409391 h 9.927469 c 0.237679,0 0.430324,-0.183275 0.430324,-0.409391 v -9.546896 c -0.0013,-0.2284963 -0.192645,-0.40701 -0.430324,-0.40701 z"
   id="path2"
   inkscape:connector-curvature="0" />
	<path
   style="fill:#c45252;fill-opacity:1"
   d="M15.026,0C6.729,0,0.001,6.726,0.001,15.025S6.729,30.05,15.026,30.05   c8.298,0,15.023-6.726,15.023-15.025S23.324,0,15.026,0z M15.026,27.54c-6.912,0-12.516-5.604-12.516-12.515   c0-6.914,5.604-12.517,12.516-12.517c6.913,0,12.514,5.603,12.514,12.517C27.54,21.936,21.939,27.54,15.026,27.54z"
   id="path4" />
</g>
<g
   id="g8">
</g>
<g
   id="g10">
</g>
<g
   id="g12">
</g>
<g
   id="g14">
</g>
<g
   id="g16">
</g>
<g
   id="g18">
</g>
<g
   id="g20">
</g>
<g
   id="g22">
</g>
<g
   id="g24">
</g>
<g
   id="g26">
</g>
<g
   id="g28">
</g>
<g
   id="g30">
</g>
<g
   id="g32">
</g>
<g
   id="g34">
</g>
<g
   id="g36">
</g>
</svg>