<?xml version="1.0" encoding="UTF-8" standalone="no"?>
<svg
   xmlns:dc="http://purl.org/dc/elements/1.1/"
   xmlns:cc="http://creativecommons.org/ns#"
   xmlns:rdf="http://www.w3.org/1999/02/22-rdf-syntax-ns#"
   xmlns:svg="http://www.w3.org/2000/svg"
   xmlns="http://www.w3.org/2000/svg"
   xmlns:sodipodi="http://sodipodi.sourceforge.net/DTD/sodipodi-0.dtd"
   xmlns:inkscape="http://www.inkscape.org/namespaces/inkscape"
   height="512pt"
   viewBox="0 0 512 512"
   width="512pt"
   version="1.1"
   id="svg20"
   sodipodi:docname="overlay_share_desktop.svg"
   inkscape:version="0.92.3 (2405546, 2018-03-11)">
  <metadata
     id="metadata26">
    <rdf:RDF>
      <cc:Work
         rdf:about="">
        <dc:format>image/svg+xml</dc:format>
        <dc:type
           rdf:resource="http://purl.org/dc/dcmitype/StillImage" />
        <dc:title></dc:title>
      </cc:Work>
    </rdf:RDF>
  </metadata>
  <defs
     id="defs24" />
  <sodipodi:namedview
     pagecolor="#ffffff"
     bordercolor="#666666"
     borderopacity="1"
     objecttolerance="10"
     gridtolerance="10"
     guidetolerance="10"
     inkscape:pageopacity="0"
     inkscape:pageshadow="2"
     inkscape:window-width="1920"
     inkscape:window-height="1140"
     id="namedview22"
     showgrid="false"
     inkscape:zoom="0.69140625"
     inkscape:cx="312.94201"
     inkscape:cy="296.70745"
     inkscape:window-x="1920"
     inkscape:window-y="0"
     inkscape:window-maximized="1"
     inkscape:current-layer="svg20" />
  <path
     inkscape:connector-curvature="0"
     style="fill:#cecece;fill-opacity:1;stroke:#000000;stroke-width:0.97624296;stroke-opacity:1"
     d="M 428.52894,508.62906 H 85.63419 c -42.970956,0 -77.930627,-35.1113 -77.930627,-78.26863 V 85.978527 c 0,-43.157311 34.959671,-78.2686192 77.930627,-78.2686192 h 342.89475 c 42.97095,0 77.93063,35.1113082 77.93063,78.2686192 V 430.36043 c 0,43.15733 -34.95968,78.26863 -77.93063,78.26863 z"
     id="path13"
     sodipodi:nodetypes="sssssssss" />
  <path
     inkscape:connector-curvature="0"
     d="m 241.69559,338.92306 v 66.63378 h 31.86303 v -66.63378 z m 0,0"
     style="fill:#3a3d51;fill-opacity:1;fill-rule:nonzero;stroke:none;stroke-width:0.92274839"
     id="path2" />
  <path
     inkscape:connector-curvature="0"
     d="m 273.55862,413.88652 c -4.39928,0 -7.96664,-3.72993 -7.96664,-8.32968 v -66.63378 c 0,-4.59974 3.56736,-8.32967 7.96664,-8.32967 4.39928,0 7.96663,3.72993 7.96663,8.32967 v 66.63378 c 0,4.59975 -3.56735,8.32968 -7.96663,8.32968 z m 0,0"
     style="fill:#3a3d51;fill-opacity:1;fill-rule:nonzero;stroke:none;stroke-width:0.92274839"
     id="path4" />
  <path
     inkscape:connector-curvature="0"
     d="m 241.69559,413.88652 c -4.39928,0 -7.96663,-3.72993 -7.96663,-8.32968 v -66.63378 c 0,-4.59974 3.56735,-8.32967 7.96663,-8.32967 4.39928,0 7.96664,3.72993 7.96664,8.32967 v 66.63378 c 0,4.59975 -3.56736,8.32968 -7.96664,8.32968 z m 0,0"
     style="fill:#3a3d51;fill-opacity:1;fill-rule:nonzero;stroke:none;stroke-width:0.92274839"
     id="path6" />
  <path
     inkscape:connector-curvature="0"
     d="m 185.93266,397.22716 h 143.3889 v 16.65936 h -143.3889 z m 0,0"
     style="fill:#3a3d51;fill-opacity:1;fill-rule:nonzero;stroke:none;stroke-width:0.92274839"
     id="path8" />
  <path
     inkscape:connector-curvature="0"
     d="m 225.76231,222.31488 c 0,13.79926 -10.69855,24.98905 -23.89991,24.98905 -13.19782,0 -23.89638,-11.18979 -23.89638,-24.98905 0,-13.79927 10.69856,-24.98904 23.89638,-24.98904 13.20136,0 23.89991,11.18977 23.89991,24.98904 z m 0,0"
     style="fill:#f0f0f0;fill-opacity:1;fill-rule:nonzero;stroke:none;stroke-width:0.92274839"
     id="path10" />
  <path
     inkscape:connector-curvature="0"
     d="m 324.19259,177.33828 c 11.42824,-6.90331 15.34106,-22.18791 8.73864,-34.13697 -6.60244,-11.94903 -21.21735,-16.04015 -32.64561,-9.13684 -11.42119,6.89595 -15.33753,22.16212 -8.75624,34.11116 6.59187,11.95641 21.20324,16.06597 32.63854,9.1737 0.0106,-0.003 0.0176,-0.008 0.0247,-0.0111 z m 0,0"
     style="fill:#f0f0f0;fill-opacity:1;fill-rule:nonzero;stroke:none;stroke-width:0.92274839"
     id="path12" />
  <path
     inkscape:connector-curvature="0"
     d="m 324.19259,267.29148 c -11.43528,-6.88857 -26.05021,-2.77901 -32.63853,9.1774 -6.58834,11.95641 -2.66144,27.23363 8.77387,34.12589 11.42825,6.8849 26.02905,2.7864 32.62444,-9.15159 6.60244,-11.94904 2.68962,-27.23365 -8.73863,-34.13697 -0.008,-0.003 -0.0141,-0.011 -0.0211,-0.0147 z m 0,0"
     style="fill:#f0f0f0;fill-opacity:1;fill-rule:nonzero;stroke:none;stroke-width:0.92274839"
     id="path14" />
  <path
     inkscape:connector-curvature="0"
     d="m 257.62535,105.70669 v 82.95038 L 291.547,168.17563 c -6.58833,-11.95642 -2.66142,-27.23732 8.77389,-34.12591 11.43882,-6.88856 26.05018,-2.78269 32.63853,9.17739 6.58481,11.94537 2.66847,27.21154 -8.75272,34.11117 -11.42826,6.89963 -26.04668,2.81219 -32.6456,-9.14054 -0.008,-0.008 -0.0105,-0.0147 -0.0141,-0.0221 l -33.92165,20.48144 v 67.31563 l 33.92165,20.48143 c 6.60244,-11.94904 21.21734,-16.04016 32.64912,-9.14053 11.42825,6.90331 15.34106,22.18791 8.73863,34.13695 -6.59539,11.94167 -21.19619,16.03648 -32.62444,9.15159 -11.4353,-6.88857 -15.36574,-22.16579 -8.7774,-34.1259 0.008,-0.008 0.0106,-0.0147 0.0141,-0.0221 l -33.91815,-20.48143 v 82.95037 h 135.42227 v -233.2164 z m 0,0"
     style="fill:#65687f;fill-opacity:1;fill-rule:nonzero;stroke:none;stroke-width:0.92274839"
     id="path24" />
  <path
     inkscape:connector-curvature="0"
     d="m 222.57566,234.8094 35.04969,21.1633 v -67.31563 l -35.04969,21.16328 35.04969,-21.16328 V 105.70669 H 122.20308 V 338.92306 H 257.62535 V 255.9727 Z m -20.71326,12.49453 c -13.19782,0 -23.89638,-11.18979 -23.89638,-24.98905 0,-13.79927 10.69856,-24.98904 23.89638,-24.98904 13.20136,0 23.89991,11.18977 23.89991,24.98904 0,13.79926 -10.69855,24.98905 -23.89991,24.98905 z m 0,0"
     style="fill:#65687f;fill-opacity:1;fill-rule:nonzero;stroke:none;stroke-width:0.92274839"
     id="path26" />
  <path
     inkscape:connector-curvature="0"
     d="m 222.57566,218.15004 c -4.39928,0 -7.96664,-3.72994 -7.96664,-8.32969 0,-2.97436 1.51931,-5.72389 3.98333,-7.21292 l 68.99601,-41.64472 c 3.82469,-2.27407 8.68575,-0.87719 10.86071,3.12179 2.15381,3.96213 0.86364,8.99679 -2.89407,11.30405 l -68.99601,41.64472 c -1.21263,0.73345 -2.58388,1.11677 -3.98333,1.11677 z m 0,0"
     style="fill:#f0f0f0;fill-opacity:1;fill-rule:nonzero;stroke:none;stroke-width:0.92274839"
     id="path32" />
  <path
     inkscape:connector-curvature="0"
     d="m 291.547,284.78381 c -1.39944,0.003 -2.77423,-0.38331 -3.98331,-1.11677 l -68.99602,-41.64472 c -3.82469,-2.27408 -5.16068,-7.36035 -2.98926,-11.35933 2.17497,-3.99898 7.03956,-5.39955 10.86425,-3.12547 0.0281,0.0184 0.06,0.0369 0.0916,0.0553 l 68.99602,41.64842 c 3.8106,2.29988 5.11486,7.39351 2.91522,11.37776 -1.42411,2.5763 -4.05381,4.16483 -6.89854,4.16483 z m 0,0"
     style="fill:#f0f0f0;fill-opacity:1;fill-rule:nonzero;stroke:none;stroke-width:0.92274839"
     id="path34" />
</svg>
