<?xml version="1.0" encoding="UTF-8" standalone="no"?>
<!-- Generator: Adobe Illustrator 19.0.0, SVG Export Plug-In . SVG Version: 6.00 Build 0)  -->

<svg
   xmlns:dc="http://purl.org/dc/elements/1.1/"
   xmlns:cc="http://creativecommons.org/ns#"
   xmlns:rdf="http://www.w3.org/1999/02/22-rdf-syntax-ns#"
   xmlns:svg="http://www.w3.org/2000/svg"
   xmlns="http://www.w3.org/2000/svg"
   xmlns:sodipodi="http://sodipodi.sourceforge.net/DTD/sodipodi-0.dtd"
   xmlns:inkscape="http://www.inkscape.org/namespaces/inkscape"
   version="1.1"
   id="Layer_1"
   x="0px"
   y="0px"
   viewBox="0 0 260096 260096"
   xml:space="preserve"
   sodipodi:docname="overlay_mute.svg"
   inkscape:version="0.92.5 (2060ec1f9f, 2020-04-08)"
   width="512"
   height="512"
   inkscape:export-filename="/home/tamrielle/Workspace/fubble/fubble/client/app/pics/overlay_mute.svg.png"
   inkscape:export-xdpi="96"
   inkscape:export-ydpi="96"><metadata
   id="metadata65"><rdf:RDF><cc:Work
       rdf:about=""><dc:format>image/svg+xml</dc:format><dc:type
         rdf:resource="http://purl.org/dc/dcmitype/StillImage" /><dc:title></dc:title></cc:Work></rdf:RDF></metadata><defs
   id="defs63"><linearGradient
     id="SVGID_1_"
     gradientUnits="userSpaceOnUse"
     x1="0"
     y1="258"
     x2="512"
     y2="258"
     gradientTransform="matrix(508,0,0,-508,1170.9836,262128)"><stop
       offset="0"
       style="stop-color:#0277bd;stop-opacity:1"
       id="stop2" /><stop
       offset="1"
       style="stop-color:#fd7d3e;stop-opacity:1"
       id="stop10" /></linearGradient></defs><sodipodi:namedview
   pagecolor="#ffffff"
   bordercolor="#666666"
   borderopacity="1"
   objecttolerance="10"
   gridtolerance="10"
   guidetolerance="10"
   inkscape:pageopacity="0"
   inkscape:pageshadow="2"
   inkscape:window-width="1920"
   inkscape:window-height="1140"
   id="namedview61"
   showgrid="false"
   inkscape:zoom="0.92913386"
   inkscape:cx="82.566864"
   inkscape:cy="243.54237"
   inkscape:window-x="1920"
   inkscape:window-y="0"
   inkscape:window-maximized="1"
   inkscape:current-layer="Layer_1"
   units="px" />

<rect
   x="119093.44"
   y="198653.7"
   style="fill:#3a3d51;fill-opacity:1;stroke-width:739.7487793"
   width="21279.924"
   height="45638.18"
   id="rect4" />
<path
   style="fill:#65687f;fill-opacity:1;stroke:none;stroke-width:801.45465088;stroke-opacity:1"
   d="m 129553.05,10347.533 v 0 c -28854.14,0 -52298.134,18521.374 -52298.134,41316.914 v 85768.223 c 0,22795.54 23443.994,41316.9 52298.134,41316.9 v 0 c 28854.13,0 52298.11,-18521.36 52298.11,-41316.9 V 51379.499 c 0,-22795.535 -23443.98,-41031.966 -52298.11,-41031.966 z"
   id="path6"
   inkscape:connector-curvature="0" />
<g
   id="g22"
   transform="matrix(901.6917,0,0,701.12001,-99476.65,-39999.876)"
   style="fill:#3a3d51;fill-opacity:1">
	<path
   style="fill:#3a3d51;fill-opacity:1"
   d="M 196,227.6 V 254 c 0,32 26,58 58,58 v 0 c 32,0 58,-26 58,-58 v -26.4 z"
   id="path8"
   inkscape:connector-curvature="0" />
	<rect
   x="275.20001"
   y="135.60001"
   style="fill:#3a3d51;fill-opacity:1"
   width="36.400002"
   height="13.6"
   id="rect10" />
	<rect
   x="275.20001"
   y="160"
   style="fill:#3a3d51;fill-opacity:1"
   width="36.400002"
   height="13.6"
   id="rect12" />
	<rect
   x="275.20001"
   y="184"
   style="fill:#3a3d51;fill-opacity:1"
   width="36.400002"
   height="13.6"
   id="rect14" />
	<rect
   x="196"
   y="135.60001"
   style="fill:#3a3d51;fill-opacity:1"
   width="36.400002"
   height="13.6"
   id="rect16" />
	<rect
   x="196"
   y="160"
   style="fill:#3a3d51;fill-opacity:1"
   width="36.400002"
   height="13.6"
   id="rect18" />
	<rect
   x="196"
   y="184"
   style="fill:#3a3d51;fill-opacity:1"
   width="36.400002"
   height="13.6"
   id="rect20" />
</g>
<g
   id="g28"
   transform="matrix(901.6917,0,0,606.89072,-99476.65,-10600.332)"
   style="fill:#3a3d51;fill-opacity:1">
	<path
   style="fill:#3a3d51;fill-opacity:1"
   d="m 329.2,206.8 v 48.4 c 0,40.8 -32,75.6 -73.2,76.8 -42.4,1.2 -77.6,-32.8 -77.6,-75.2 v -50 c 0,-5.6 -4.4,-10 -10,-10 v 0 c -5.6,0 -10,4.4 -10,10 v 48 c 0,53.2 43.6,98 96.8,96.8 51.6,-0.8 93.2,-43.2 93.2,-95.2 v -49.6 c 0,-5.6 -4.4,-10 -10,-10 v 0 c -4.8,0 -9.2,4.4 -9.2,10 z"
   id="path24"
   inkscape:connector-curvature="0" />
	<path
   style="fill:#3a3d51;fill-opacity:1"
   d="m 302.8,407.6 h -97.6 c -6.8,0 -12.4,5.6 -12.4,12.4 v 0 c 0,6.8 5.6,12.4 12.4,12.4 h 97.2 c 6.8,0 12.4,-5.6 12.4,-12.4 v 0 c 0.4,-6.8 -5.2,-12.4 -12,-12.4 z"
   id="path26"
   inkscape:connector-curvature="0" />
</g>
<g
   id="g30"
   transform="matrix(961.08943,0,0,632.27963,-108017.13,-20856.945)">
</g>
<g
   id="g32"
   transform="matrix(961.08943,0,0,632.27963,-108017.13,-20856.945)">
</g>
<g
   id="g34"
   transform="matrix(961.08943,0,0,632.27963,-108017.13,-20856.945)">
</g>
<g
   id="g36"
   transform="matrix(961.08943,0,0,632.27963,-108017.13,-20856.945)">
</g>
<g
   id="g38"
   transform="matrix(961.08943,0,0,632.27963,-108017.13,-20856.945)">
</g>
<g
   id="g40"
   transform="matrix(961.08943,0,0,632.27963,-108017.13,-20856.945)">
</g>
<g
   id="g42"
   transform="matrix(961.08943,0,0,632.27963,-108017.13,-20856.945)">
</g>
<g
   id="g44"
   transform="matrix(961.08943,0,0,632.27963,-108017.13,-20856.945)">
</g>
<g
   id="g46"
   transform="matrix(961.08943,0,0,632.27963,-108017.13,-20856.945)">
</g>
<g
   id="g48"
   transform="matrix(961.08943,0,0,632.27963,-108017.13,-20856.945)">
</g>
<g
   id="g50"
   transform="matrix(961.08943,0,0,632.27963,-108017.13,-20856.945)">
</g>
<g
   id="g52"
   transform="matrix(961.08943,0,0,632.27963,-108017.13,-20856.945)">
</g>
<g
   id="g54"
   transform="matrix(961.08943,0,0,632.27963,-108017.13,-20856.945)">
</g>
<g
   id="g56"
   transform="matrix(961.08943,0,0,632.27963,-108017.13,-20856.945)">
</g>
<g
   id="g58"
   transform="matrix(961.08943,0,0,632.27963,-108017.13,-20856.945)">
</g>
</svg>