<?xml version="1.0" encoding="UTF-8" standalone="no"?>
<!-- Generator: Adobe Illustrator 16.0.0, SVG Export Plug-In . SVG Version: 6.00 Build 0)  -->

<svg
   xmlns:dc="http://purl.org/dc/elements/1.1/"
   xmlns:cc="http://creativecommons.org/ns#"
   xmlns:rdf="http://www.w3.org/1999/02/22-rdf-syntax-ns#"
   xmlns:svg="http://www.w3.org/2000/svg"
   xmlns="http://www.w3.org/2000/svg"
   xmlns:sodipodi="http://sodipodi.sourceforge.net/DTD/sodipodi-0.dtd"
   xmlns:inkscape="http://www.inkscape.org/namespaces/inkscape"
   version="1.1"
   id="Capa_1"
   x="0px"
   y="0px"
   width="612px"
   height="612px"
   viewBox="0 0 612 612"
   style="enable-background:new 0 0 612 612;"
   xml:space="preserve"
   sodipodi:docname="right_arrow.svg"
   inkscape:version="0.92.5 (2060ec1f9f, 2020-04-08)"><metadata
   id="metadata44"><rdf:RDF><cc:Work
       rdf:about=""><dc:format>image/svg+xml</dc:format><dc:type
         rdf:resource="http://purl.org/dc/dcmitype/StillImage" /><dc:title></dc:title></cc:Work></rdf:RDF></metadata><defs
   id="defs42" /><sodipodi:namedview
   pagecolor="#ffffff"
   bordercolor="#666666"
   borderopacity="1"
   objecttolerance="10"
   gridtolerance="10"
   guidetolerance="10"
   inkscape:pageopacity="0"
   inkscape:pageshadow="2"
   inkscape:window-width="1015"
   inkscape:window-height="480"
   id="namedview40"
   showgrid="false"
   inkscape:zoom="0.38562092"
   inkscape:cx="306"
   inkscape:cy="306"
   inkscape:window-x="2348"
   inkscape:window-y="150"
   inkscape:window-maximized="0"
   inkscape:current-layer="Capa_1" />
<g
   id="g7"
   transform="matrix(-1,0,0,1,611.99975,0)">
	<g
   id="_x34__11_">
		<g
   id="g4">
			<path
   d="M 124.172,305.975 342.365,87.781 c 20.079,-20.079 20.079,-52.644 0,-72.722 -20.079,-20.079 -52.644,-20.079 -72.723,0 l -254.58,254.58 c -20.079,20.079 -20.079,52.644 0,72.723 l 254.58,254.58 c 20.079,20.078 52.644,20.078 72.723,0 20.079,-20.079 20.079,-52.644 0,-72.723 z m 307.223,-0.281 165.371,-165.982 c 20.308,-20.359 20.308,-53.408 0,-73.768 -20.309,-20.359 -53.204,-20.359 -73.513,0 L 321.139,268.823 c -20.309,20.359 -17.047,35.266 3.032,55.345 L 523.253,545.47 c 20.309,20.359 53.204,20.359 73.513,0 20.308,-20.359 20.308,-53.408 0,-73.768 z"
   id="path2"
   inkscape:connector-curvature="0" />
		</g>
	</g>
</g>
<g
   id="g9"
   transform="matrix(-1,0,0,1,611.99975,0)">
</g>
<g
   id="g11"
   transform="matrix(-1,0,0,1,611.99975,0)">
</g>
<g
   id="g13"
   transform="matrix(-1,0,0,1,611.99975,0)">
</g>
<g
   id="g15"
   transform="matrix(-1,0,0,1,611.99975,0)">
</g>
<g
   id="g17"
   transform="matrix(-1,0,0,1,611.99975,0)">
</g>
<g
   id="g19"
   transform="matrix(-1,0,0,1,611.99975,0)">
</g>
<g
   id="g21"
   transform="matrix(-1,0,0,1,611.99975,0)">
</g>
<g
   id="g23"
   transform="matrix(-1,0,0,1,611.99975,0)">
</g>
<g
   id="g25"
   transform="matrix(-1,0,0,1,611.99975,0)">
</g>
<g
   id="g27"
   transform="matrix(-1,0,0,1,611.99975,0)">
</g>
<g
   id="g29"
   transform="matrix(-1,0,0,1,611.99975,0)">
</g>
<g
   id="g31"
   transform="matrix(-1,0,0,1,611.99975,0)">
</g>
<g
   id="g33"
   transform="matrix(-1,0,0,1,611.99975,0)">
</g>
<g
   id="g35"
   transform="matrix(-1,0,0,1,611.99975,0)">
</g>
<g
   id="g37"
   transform="matrix(-1,0,0,1,611.99975,0)">
</g>
</svg>