<?xml version="1.0" encoding="UTF-8" standalone="no"?>
<!-- Generator: Adobe Illustrator 21.0.0, SVG Export Plug-In . SVG Version: 6.00 Build 0)  -->

<svg
   xmlns:dc="http://purl.org/dc/elements/1.1/"
   xmlns:cc="http://creativecommons.org/ns#"
   xmlns:rdf="http://www.w3.org/1999/02/22-rdf-syntax-ns#"
   xmlns:svg="http://www.w3.org/2000/svg"
   xmlns="http://www.w3.org/2000/svg"
   xmlns:sodipodi="http://sodipodi.sourceforge.net/DTD/sodipodi-0.dtd"
   xmlns:inkscape="http://www.inkscape.org/namespaces/inkscape"
   version="1.1"
   id="Layer_1"
   x="0px"
   y="0px"
   viewBox="0 0 105.8 78.899986"
   xml:space="preserve"
   sodipodi:docname="Logo.svg"
   inkscape:version="0.92.3 (2405546, 2018-03-11)"
   inkscape:export-filename="/home/tamrielle/Dropbox/Freckled/Logo/Final Logo.svg.png"
   inkscape:export-xdpi="96"
   inkscape:export-ydpi="96"
   width="105.8"
   height="78.899986"><metadata
   id="metadata90"><rdf:RDF><cc:Work
       rdf:about=""><dc:format>image/svg+xml</dc:format><dc:type
         rdf:resource="http://purl.org/dc/dcmitype/StillImage" /><dc:title></dc:title></cc:Work></rdf:RDF></metadata><defs
   id="defs88" /><sodipodi:namedview
   pagecolor="#ffffff"
   bordercolor="#666666"
   borderopacity="1"
   objecttolerance="10"
   gridtolerance="10"
   guidetolerance="10"
   inkscape:pageopacity="0"
   inkscape:pageshadow="2"
   inkscape:window-width="1920"
   inkscape:window-height="1137"
   id="namedview86"
   showgrid="false"
   inkscape:zoom="1.3434343"
   inkscape:cx="-245.40952"
   inkscape:cy="-5.9211"
   inkscape:window-x="1912"
   inkscape:window-y="-8"
   inkscape:window-maximized="1"
   inkscape:current-layer="g83"
   fit-margin-top="0"
   fit-margin-left="0"
   fit-margin-right="0"
   fit-margin-bottom="0" />
<style
   type="text/css"
   id="style2">
	.st0{fill:url(#SVGID_1_);}
	.st1{fill:#959595;}
	.st2{fill:url(#SVGID_2_);}
	.st3{fill:#00AEEF;}
	.st4{fill:url(#SVGID_3_);}
	.st5{fill:url(#SVGID_4_);}
	.st6{fill:url(#SVGID_5_);}
	.st7{fill:#979797;}
</style>
<g
   id="g83"
   transform="translate(-184,-266.70001)">
	<linearGradient
   id="SVGID_1_"
   gradientUnits="userSpaceOnUse"
   x1="270.77509"
   y1="270.23151"
   x2="285.04541"
   y2="285.29459">
		<stop
   offset="0"
   style="stop-color:#424242;stop-opacity:1"
   id="stop4" /><stop
   id="stop899"
   style="stop-color:#525252;stop-opacity:1"
   offset="0.51522487" />
		<stop
   offset="1"
   style="stop-color:#606060;stop-opacity:1"
   id="stop6" />
	</linearGradient>
	<circle
   class="st0"
   cx="278.29999"
   cy="278.20001"
   r="11.5"
   id="circle9"
   style="fill:url(#SVGID_1_)" />
	<path
   class="st1"
   d="m 239.3,307.3 c -0.1,-0.4 -0.1,-0.8 -0.1,-1.2 0,-0.4 0,-0.7 0.1,-1.1 0,0.4 0.1,0.8 0.1,1.3 -0.1,0.3 -0.1,0.6 -0.1,1 z"
   id="path11"
   inkscape:connector-curvature="0"
   style="fill:#959595" />
	<linearGradient
   id="SVGID_2_"
   gradientUnits="userSpaceOnUse"
   x1="211.6217"
   y1="334.06021"
   x2="234.46449"
   y2="334.06021">
		<stop
   offset="0"
   style="stop-color:#424242;stop-opacity:1"
   id="stop13" /><stop
   id="stop903"
   style="stop-color:#525252;stop-opacity:1"
   offset="0.54419482" />
		<stop
   offset="1"
   style="stop-color:#606060;stop-opacity:1"
   id="stop15" />
	</linearGradient>
	<path
   class="st2"
   d="m 234.4,333.9 c 0,-0.4 0,-0.7 0,-1.1 -0.6,-5.7 -5.5,-10.2 -11.4,-10.2 -0.6,0 -1.3,0.1 -1.9,0.2 -5.4,0.9 -9.6,5.6 -9.6,11.3 0,6.3 5.1,11.5 11.4,11.5 5.8,0 10.7,-4.4 11.4,-10 0,-0.1 0,-0.2 0,-0.3 0,0 0,0 0,-0.1 0.1,-0.4 0.1,-0.9 0.1,-1.3 z"
   id="path18"
   inkscape:connector-curvature="0"
   style="fill:url(#SVGID_2_)" />
	<path
   class="st3"
   d="m 247.3,321.6 v 0 c -0.5,-0.1 -1.1,-0.2 -1.6,-0.4 0.5,0.2 1,0.3 1.6,0.4 z"
   id="path20"
   inkscape:connector-curvature="0"
   style="fill:#00aeef" />
	<path
   class="st1"
   d="m 248.2,321.8 c -0.3,0 -0.6,-0.1 -0.9,-0.2 v 0 c 0.3,0.1 0.6,0.2 0.9,0.2 z"
   id="path22"
   inkscape:connector-curvature="0"
   style="fill:#959595" />
	<path
   class="st3"
   d="m 239.3,304.9 c 0,0.2 0,0.5 0,0.8 0,-0.2 0,-0.5 0,-0.8 z"
   id="path24"
   inkscape:connector-curvature="0"
   style="fill:#00aeef" />
	<path
   class="st3"
   d="m 239.3,306.4 c 0,0.6 0.1,1.8 0.5,3.2 -0.3,-0.7 -0.4,-1.5 -0.5,-2.3 0,-0.3 0,-0.6 0,-0.9 z"
   id="path26"
   inkscape:connector-curvature="0"
   style="fill:#00aeef" />
	<path
   class="st3"
   d="m 234.5,306.2 c 0,0.2 0,1.3 0.2,2.9 -0.1,-0.5 -0.2,-1 -0.2,-1.5 v -0.4 -0.4 c 0,-0.2 0,-0.5 0,-0.7 0,0 0,0 0,0.1 z"
   id="path28"
   inkscape:connector-curvature="0"
   style="fill:#00aeef" />
	<path
   class="st3"
   d="m 239.3,305.7 c 0,0.1 0,0.3 0,0.5 0,-0.2 0,-0.3 0,-0.5 z"
   id="path30"
   inkscape:connector-curvature="0"
   style="fill:#00aeef" />
	<linearGradient
   id="SVGID_3_"
   gradientUnits="userSpaceOnUse"
   x1="417.9942"
   y1="319.97379"
   x2="172.4698"
   y2="319.97379">
		<stop
   offset="0"
   style="stop-color:#EC1C24"
   id="stop32" />
		<stop
   offset="0.5934"
   style="stop-color:#F26F43"
   id="stop34" />
		<stop
   offset="0.8956"
   style="stop-color:#F7C65D"
   id="stop36" />
	</linearGradient>
	<path
   class="st4"
   d="m 278.3,294.6 c -5.3,0 -9.8,3.7 -11.1,8.6 -0.1,0.5 -0.2,1 -0.3,1.5 -0.1,0.4 -0.1,0.9 -0.1,1.3 0,0.3 0.5,3.8 -2.5,8.4 v 0 c -1.4,2.2 -3.3,4 -5.6,5.3 -1.8,1 -3.7,1.7 -5.9,2 -0.6,0.1 -1.4,0.2 -2.3,0.2 -0.8,0 -1.6,-0.1 -2.3,-0.2 -0.1,0 -0.1,0 -0.2,0 -0.3,0 -0.6,-0.1 -0.9,-0.2 -0.5,-0.1 -1.1,-0.2 -1.6,-0.4 -5.3,-1.7 -9.5,-6.1 -10.8,-11.6 -0.3,-1.5 -0.4,-2.7 -0.4,-3.3 0,-0.1 0,-0.2 0,-0.3 0,-0.1 0,-0.3 0,-0.5 0,-0.2 0,-0.4 -0.1,-0.6 0,-0.1 0,-0.1 0,-0.2 0,-0.2 0,-0.3 0,-0.3 -0.7,-5.6 -5.5,-9.9 -11.3,-9.9 -5.3,0 -9.7,3.6 -11,8.5 -0.3,0.9 -0.4,1.9 -0.4,2.9 0,0 0,0.1 0,0.1 0,0 0,0.1 0,0.1 0,3.1 -0.9,6 -2.4,8.4 -1.3,2.2 -3.2,4 -5.3,5.4 -2.5,1.5 -5.3,2.4 -8.4,2.5 0,0 -0.1,0 -0.1,0 -0.9,0 -1.7,0.1 -2.5,0.3 -5.1,1.2 -8.8,5.7 -8.8,11.1 0,6.3 5.1,11.5 11.5,11.5 5.3,0 9.8,-3.7 11.1,-8.6 0.1,-0.5 0.2,-1 0.3,-1.5 0.1,-0.4 0.1,-0.9 0.1,-1.3 0,-0.3 -0.5,-3.8 2.5,-8.4 v 0 c 1.4,-2.2 3.3,-4 5.6,-5.3 1.8,-1 3.7,-1.7 5.9,-2 0.6,-0.1 1.4,-0.2 2.3,-0.2 0.8,0 1.6,0.1 2.3,0.2 0.1,0 0.1,0 0.2,0 0.3,0 0.6,0.1 0.9,0.2 0.5,0.1 1.1,0.2 1.6,0.4 5.3,1.7 9.5,6.1 10.8,11.6 0.3,1.5 0.4,2.7 0.4,3.3 0,0.1 0,0.2 0,0.3 0,0.1 0,0.3 0,0.5 0,0.2 0,0.4 0.1,0.6 0,0.1 0,0.1 0,0.2 0,0.2 0,0.3 0,0.3 0.7,5.6 5.5,9.9 11.3,9.9 5.3,0 9.7,-3.6 11,-8.5 0.3,-0.9 0.4,-1.9 0.4,-2.9 0,0 0,-0.1 0,-0.1 0,0 0,-0.1 0,-0.1 0,-3.1 0.9,-6 2.4,-8.4 1.3,-2.2 3.2,-4 5.3,-5.4 2.5,-1.5 5.3,-2.4 8.4,-2.5 0,0 0.1,0 0.1,0 0.9,0 1.7,-0.1 2.5,-0.3 5.1,-1.2 8.8,-5.7 8.8,-11.1 0,-6.4 -5.2,-11.5 -11.5,-11.5 z"
   id="path39"
   inkscape:connector-curvature="0"
   style="fill:url(#SVGID_3_)" />
	<linearGradient
   id="SVGID_4_"
   gradientUnits="userSpaceOnUse"
   x1="266.92731"
   y1="333.9024"
   x2="289.77011"
   y2="333.9024">
		<stop
   offset="0"
   style="stop-color:#424242;stop-opacity:1"
   id="stop41" /><stop
   offset="0.56702286"
   style="stop-color:#525252;stop-opacity:1"
   id="stop907" />
		<stop
   offset="1"
   style="stop-color:#606060;stop-opacity:1"
   id="stop43" />
	</linearGradient>
	<path
   class="st5"
   d="m 280.9,322.8 c -0.9,-0.2 -1.7,-0.3 -2.6,-0.3 -5.9,0 -10.8,4.5 -11.4,10.3 v 0 c 0,0.4 0.1,0.8 0.1,1.2 0,0.4 0,0.8 -0.1,1.2 v 0 c 0.1,0.6 0.2,1.2 0.4,1.8 1.3,4.9 5.7,8.5 11,8.5 6.3,0 11.5,-5.1 11.5,-11.4 0,-5.6 -3.8,-10.2 -8.9,-11.3 z"
   id="path46"
   inkscape:connector-curvature="0"
   style="fill:url(#SVGID_4_)" />
	<path
   class="st1"
   d="m 262.1,304.9 c 0,0.4 0.1,0.8 0.1,1.2 0,0.4 0,0.8 -0.1,1.1 0,-0.4 0,-0.7 0,-1.1 -0.1,-0.4 0,-0.8 0,-1.2 z"
   id="path48"
   inkscape:connector-curvature="0"
   style="fill:#959595" />
	<linearGradient
   id="SVGID_5_"
   gradientUnits="userSpaceOnUse"
   x1="239.29311"
   y1="306.04529"
   x2="262.09869"
   y2="306.04529">
		<stop
   offset="0"
   style="stop-color:#424242;stop-opacity:1"
   id="stop50" /><stop
   id="stop901"
   style="stop-color:#525252;stop-opacity:1"
   offset="0.53938007" />
		<stop
   offset="1"
   style="stop-color:#606060;stop-opacity:1"
   id="stop52" />
	</linearGradient>
	<path
   class="st6"
   d="m 262.1,304.8 c -0.1,-0.6 -0.2,-1.1 -0.3,-1.6 -1.2,-5 -5.8,-8.6 -11.1,-8.6 -5.8,0 -10.5,4.3 -11.3,9.8 0,0.2 -0.1,0.3 -0.1,0.5 0,0 0,0 0,0.1 0,0.2 0,0.5 0,0.8 0,0.1 0,0.3 0,0.5 0,0.1 0,0.1 0,0.2 0,0.6 0.1,1.8 0.5,3.2 0.3,0.8 0.6,1.7 1.2,2.5 0.3,0.4 0.5,0.8 0.8,1.1 0.3,0.4 0.6,0.7 0.9,1 0.3,0.3 0.5,0.5 0.8,0.7 0.4,0.3 0.9,0.6 1.3,0.9 0.1,0 0.1,0.1 0.2,0.1 0.7,0.4 1.5,0.8 2.3,1 1.1,0.3 2.2,0.5 3.4,0.5 0.1,0 0.2,0 0.4,0 0.4,0 0.9,0 1.3,-0.1 5.2,-0.7 9.3,-4.9 9.8,-10.2 0,-0.4 0,-0.7 0,-1.1 0,-0.4 -0.1,-0.8 -0.1,-1.3 0,0.1 0,0 0,0 z"
   id="path55"
   inkscape:connector-curvature="0"
   style="fill:url(#SVGID_5_)" />
	<path
   class="st3"
   d="m 243.5,314.9 c -0.3,-0.2 -0.5,-0.4 -0.8,-0.7 0.3,0.3 0.5,0.5 0.8,0.7 z"
   id="path57"
   inkscape:connector-curvature="0"
   style="fill:#00aeef" />
	<path
   class="st3"
   d="m 241.8,313.2 c 0.3,0.4 0.6,0.7 0.9,1 -0.3,-0.3 -0.6,-0.6 -0.9,-1 z"
   id="path59"
   inkscape:connector-curvature="0"
   style="fill:#00aeef" />
	<path
   class="st3"
   d="m 241,312.1 c 0.3,0.4 0.5,0.8 0.8,1.1 -0.3,-0.3 -0.6,-0.7 -0.8,-1.1 z"
   id="path61"
   inkscape:connector-curvature="0"
   style="fill:#00aeef" />
	
</g>
</svg>