<?xml version="1.0" encoding="UTF-8" standalone="no"?>
<svg
   xmlns:dc="http://purl.org/dc/elements/1.1/"
   xmlns:cc="http://creativecommons.org/ns#"
   xmlns:rdf="http://www.w3.org/1999/02/22-rdf-syntax-ns#"
   xmlns:svg="http://www.w3.org/2000/svg"
   xmlns="http://www.w3.org/2000/svg"
   xmlns:xlink="http://www.w3.org/1999/xlink"
   xmlns:sodipodi="http://sodipodi.sourceforge.net/DTD/sodipodi-0.dtd"
   xmlns:inkscape="http://www.inkscape.org/namespaces/inkscape"
   height="512pt"
   viewBox="0 0 512 511"
   width="512pt"
   version="1.1"
   id="svg6"
   sodipodi:docname="forbidden.svg"
   inkscape:version="0.92.3 (2405546, 2018-03-11)">
  <metadata
     id="metadata12">
    <rdf:RDF>
      <cc:Work
         rdf:about="">
        <dc:format>image/svg+xml</dc:format>
        <dc:type
           rdf:resource="http://purl.org/dc/dcmitype/StillImage" />
        <dc:title></dc:title>
      </cc:Work>
    </rdf:RDF>
  </metadata>
  <defs
     id="defs10">
    <linearGradient
       inkscape:collect="always"
       id="orange_gradient">
      <stop
         style="stop-color:#fd7d3e;stop-opacity:1"
         offset="0"
         id="stop892" />
      <stop
         style="stop-color:#ffe393;stop-opacity:1"
         offset="1"
         id="stop894" />
    </linearGradient>
    <linearGradient
       inkscape:collect="always"
       xlink:href="#orange_gradient"
       id="linearGradient898"
       x1="-373.72999"
       y1="239.24747"
       x2="277.11747"
       y2="239.24747"
       gradientUnits="userSpaceOnUse" />
  </defs>
  <sodipodi:namedview
     pagecolor="#ffffff"
     bordercolor="#666666"
     borderopacity="1"
     objecttolerance="10"
     gridtolerance="10"
     guidetolerance="10"
     inkscape:pageopacity="0"
     inkscape:pageshadow="2"
     inkscape:window-width="1920"
     inkscape:window-height="1140"
     id="namedview8"
     showgrid="false"
     inkscape:zoom="0.34570313"
     inkscape:cx="341.33333"
     inkscape:cy="341.33333"
     inkscape:window-x="1920"
     inkscape:window-y="0"
     inkscape:window-maximized="1"
     inkscape:current-layer="svg6" />
  <g
     transform="matrix(0.77542371,0,0,0.78850596,57.491523,49.302693)"
     id="g44">
    <g
       id="g4">
      <path
         style="fill:#444444;fill-opacity:1"
         inkscape:connector-curvature="0"
         d="M 224.707,242.914 203.494,221.701 318.681,106.513 h 48.962 v 30 h -36.535 z"
         id="path2-8" />
    </g>
    <g
       id="g8">
      <path
         style="fill:#717171;fill-opacity:1"
         inkscape:connector-curvature="0"
         d="m 97.087,221.619 -27.021,-13.031 34.915,-73.377 h 87.971 c 25.328,0 45.934,20.605 45.934,45.934 v 30.934 h -30 v -30.934 c 0,-8.786 -7.148,-15.934 -15.934,-15.934 h -69.133 z"
         id="path6" />
    </g>
    <path
       style="fill:#717171;fill-opacity:1"
       inkscape:connector-curvature="0"
       d="m 477.462,156.052 h -92.103 c -19.075,0 -34.538,-15.463 -34.538,-34.538 0,-19.075 15.463,-34.538 34.538,-34.538 h 92.103 c 19.075,0 34.538,15.463 34.538,34.538 0,19.074 -15.463,34.538 -34.538,34.538 z"
       id="path10" />
    <g
       id="g22">
      <g
         id="g16">
        <path
           style="fill:#717171;fill-opacity:1"
           inkscape:connector-curvature="0"
           d="m 433.635,271.553 h -93.008 v 45.254 l 46.504,10 46.504,-10 z"
           id="path12" />
        <path
           style="fill:#434343;fill-opacity:1"
           inkscape:connector-curvature="0"
           d="m 340.627,316.807 h 93.008 v 45.254 h -93.008 z"
           id="path14" />
      </g>
      <path
         style="fill:#999999;fill-opacity:1"
         inkscape:connector-curvature="0"
         d="M 348.028,208.588 H 70.066 v 108.219 l 127.382,10.562 150.58,-10.562 z"
         id="path18" />
      <path
         style="fill:#717171;fill-opacity:1"
         inkscape:connector-curvature="0"
         d="M 70.066,316.807 H 348.028 V 425.026 H 70.066 Z"
         id="path20" />
    </g>
    <g
       id="g28">
      <path
         style="fill:#c1c1c1;fill-opacity:1"
         inkscape:connector-curvature="0"
         d="M 148.6,280.717 H 16.089 c -0.602,0 -1.089,0.488 -1.089,1.089 v 35 l 77.5,10 92.189,-10 c 0,-19.931 -16.158,-36.089 -36.089,-36.089 z"
         id="path24" />
      <path
         style="fill:#999999;fill-opacity:1"
         inkscape:connector-curvature="0"
         d="m 15,351.807 c 0,0.602 0.488,1.089 1.089,1.089 H 148.6 c 19.931,0 36.089,-16.158 36.089,-36.089 H 15 Z"
         id="path26" />
    </g>
    <g
       id="g32">
      <path
         style="fill:#e3e3e3;fill-opacity:1"
         inkscape:connector-curvature="0"
         d="m 30,316.807 -15,10 -15,-10 v -75.616 h 30 z"
         id="path30" />
    </g>
    <g
       id="g36">
      <path
         style="fill:#c1c1c1;fill-opacity:1"
         inkscape:connector-curvature="0"
         d="m 0,316.807 h 30 v 75.615 H 0 Z"
         id="path34" />
    </g>
    <g
       id="g42">
      <path
         style="fill:#999999;fill-opacity:1"
         inkscape:connector-curvature="0"
         d="M 511.401,230.876 427,249.205 v 67.602 l 42.201,10 42.2,-10 z"
         id="path38" />
      <path
         style="fill:#717171;fill-opacity:1"
         inkscape:connector-curvature="0"
         d="m 427,316.807 v 67.602 l 84.401,18.328 v -85.93 z"
         id="path40" />
    </g>
  </g>
  <g
     id="g18"
     transform="matrix(0.74999998,0,0,0.74999998,296.13558,76.516946)"
     style="fill-opacity:1;fill:url(#linearGradient898)">
    <path
       style="fill:url(#linearGradient898);stroke-width:1.26835847;fill-opacity:1"
       inkscape:connector-curvature="0"
       d="m 115.08314,-84.729926 h -326.77881 c -89.34533,0 -162.03432,72.365922 -162.03432,161.314169 V 401.9107 c 0,88.94825 72.68899,161.31417 162.03432,161.31417 h 326.77881 c 89.34534,0 162.03433,-72.36592 162.03433,-161.31417 V 76.584243 c 0,-88.948247 -72.68899,-161.314169 -162.03433,-161.314169 z m 0,609.988706 h -326.77881 c -68.31737,0 -123.89873,-55.33434 -123.89873,-123.34808 V 76.584243 c 0,-27.172338 8.87797,-52.314757 23.88814,-72.7202702 L 188.12806,501.4768 c -20.49535,14.94347 -45.75128,23.78198 -73.04492,23.78198 z M 238.98187,401.9107 c 0,27.17235 -8.87797,52.31477 -23.88813,72.72027 L -284.74058,-22.981858 c 20.49534,-14.943457 45.75128,-23.781967 73.04491,-23.781967 h 326.77881 c 68.31738,0 123.89873,55.3343288 123.89873,123.348068 z"
       id="path14-8" />
  </g>
</svg>
