<?xml version="1.0" encoding="UTF-8" standalone="no"?>
<svg
   xmlns:dc="http://purl.org/dc/elements/1.1/"
   xmlns:cc="http://creativecommons.org/ns#"
   xmlns:rdf="http://www.w3.org/1999/02/22-rdf-syntax-ns#"
   xmlns:svg="http://www.w3.org/2000/svg"
   xmlns="http://www.w3.org/2000/svg"
   xmlns:sodipodi="http://sodipodi.sourceforge.net/DTD/sodipodi-0.dtd"
   xmlns:inkscape="http://www.inkscape.org/namespaces/inkscape"
   height="512pt"
   viewBox="0 0 512 512"
   width="512pt"
   version="1.1"
   id="svg20"
   sodipodi:docname="overlay_video.svg"
   inkscape:version="0.92.3 (2405546, 2018-03-11)">
  <metadata
     id="metadata26">
    <rdf:RDF>
      <cc:Work
         rdf:about="">
        <dc:format>image/svg+xml</dc:format>
        <dc:type
           rdf:resource="http://purl.org/dc/dcmitype/StillImage" />
        <dc:title />
      </cc:Work>
    </rdf:RDF>
  </metadata>
  <defs
     id="defs24" />
  <sodipodi:namedview
     pagecolor="#ffffff"
     bordercolor="#666666"
     borderopacity="1"
     objecttolerance="10"
     gridtolerance="10"
     guidetolerance="10"
     inkscape:pageopacity="0"
     inkscape:pageshadow="2"
     inkscape:window-width="1920"
     inkscape:window-height="1140"
     id="namedview22"
     showgrid="false"
     inkscape:zoom="0.34570313"
     inkscape:cx="-537.38697"
     inkscape:cy="290.71187"
     inkscape:window-x="1920"
     inkscape:window-y="0"
     inkscape:window-maximized="1"
     inkscape:current-layer="svg20" />
  <path
     inkscape:connector-curvature="0"
     style="fill:#cecece;fill-opacity:1;stroke:#000000;stroke-width:0.97624296;stroke-opacity:1"
     d="M 428.52894,508.62906 H 85.63419 c -42.970956,0 -77.930627,-35.1113 -77.930627,-78.26863 V 85.978527 c 0,-43.157311 34.959671,-78.2686192 77.930627,-78.2686192 h 342.89475 c 42.97095,0 77.93063,35.1113082 77.93063,78.2686192 V 430.36043 c 0,43.15733 -34.95968,78.26863 -77.93063,78.26863 z"
     id="path13"
     sodipodi:nodetypes="sssssssss" />
  <path
     d="m 341.89844,197.3916 v 117.20361 c 0,19.09119 -15.4774,34.56885 -34.56827,34.56885 H 135.66465 c -19.09087,0 -34.56827,-15.47766 -34.56827,-34.56885 V 197.3916 c 0,-19.0912 15.4774,-34.56885 34.56827,-34.56885 h 171.66552 c 19.09087,0 34.56827,15.47765 34.56827,34.56885 z m 0,0"
     id="path2"
     inkscape:connector-curvature="0"
     style="fill:#3a3d51;stroke-width:1.00006235" />
  <path
     d="m 414.28125,195.91493 v 123.74704 c 0,6.80127 -7.32852,11.07501 -13.24681,7.73102 l -51.85436,-29.29895 -7.28164,-4.11748 v -72.38403 l 7.28164,-4.11748 51.85436,-29.29113 c 5.91829,-3.34008 13.24681,0.93366 13.24681,7.73101 z m 0,0"
     id="path4"
     inkscape:connector-curvature="0"
     style="fill:#65687f;stroke-width:1.00006235" />
  <path
     d="m349.183594 251.316406v-33.832031l-7.28125 4.117187-10.453125 36.109376 10.449219 36.265624v.003907l3.640624 2.058593 3.644532 2.058594 51.847656 29.296875c5.917969 3.34375 13.246094-.933593 13.246094-7.730469v-42.203124l-48.507813-6.996094c-9.519531-1.371094-16.585937-9.53125-16.585937-19.148438zm0 0"
     id="path6"
     fill="#3a3d51" />
  <path
     d="m 341.89844,197.3916 v 117.20361 c 0,19.09119 -15.4774,34.56885 -34.56827,34.56885 H 165.6233 c -19.09087,0 -34.56827,-15.47766 -34.56827,-34.56885 V 197.3916 c 0,-19.0912 15.4774,-34.56885 34.56827,-34.56885 h 141.70687 c 19.09087,0 34.56827,15.47765 34.56827,34.56885 z m 0,0"
     id="path8"
     inkscape:connector-curvature="0"
     style="fill:#65687f;stroke-width:1.00006235" />
  <path
     d="m204.230469 256c0 14.847656-12.035157 26.882812-26.882813 26.882812s-26.882812-12.035156-26.882812-26.882812 12.035156-26.882812 26.882812-26.882812 26.882813 12.035156 26.882813 26.882812zm0 0"
     id="path10"
     fill="#fff" />
  <path
     d="m177.347656 290.722656c-19.144531 0-34.71875-15.578125-34.71875-34.722656s15.574219-34.71875 34.71875-34.71875c19.144532 0 34.722656 15.574219 34.722656 34.71875s-15.578124 34.722656-34.722656 34.722656zm0-53.769531c-10.5 0-19.046875 8.546875-19.046875 19.046875 0 10.503906 8.546875 19.046875 19.046875 19.046875 10.503906 0 19.046875-8.542969 19.046875-19.046875 0-10.5-8.542969-19.046875-19.046875-19.046875zm0 0"
     id="path12"
     fill="#3a3d51" />
  <path
     d="m296.589844 256c0 14.847656-12.039063 26.882812-26.886719 26.882812-14.84375 0-26.882813-12.035156-26.882813-26.882812s12.039063-26.882812 26.882813-26.882812c14.847656 0 26.886719 12.035156 26.886719 26.882812zm0 0"
     id="path14"
     fill="#fff" />
  <path
     d="m269.703125 290.722656c-19.144531 0-34.71875-15.578125-34.71875-34.722656s15.574219-34.71875 34.71875-34.71875 34.722656 15.574219 34.722656 34.71875-15.578125 34.722656-34.722656 34.722656zm0-53.769531c-10.5 0-19.046875 8.546875-19.046875 19.046875 0 10.503906 8.546875 19.046875 19.046875 19.046875 10.503906 0 19.046875-8.542969 19.046875-19.046875 0-10.5-8.542969-19.046875-19.046875-19.046875zm0 0"
     id="path16"
     fill="#3a3d51" />
</svg>
