<?xml version="1.0" encoding="UTF-8" standalone="no"?>
<!-- Generator: Adobe Illustrator 19.1.0, SVG Export Plug-In . SVG Version: 6.00 Build 0)  -->

<svg
   xmlns:dc="http://purl.org/dc/elements/1.1/"
   xmlns:cc="http://creativecommons.org/ns#"
   xmlns:rdf="http://www.w3.org/1999/02/22-rdf-syntax-ns#"
   xmlns:svg="http://www.w3.org/2000/svg"
   xmlns="http://www.w3.org/2000/svg"
   xmlns:sodipodi="http://sodipodi.sourceforge.net/DTD/sodipodi-0.dtd"
   xmlns:inkscape="http://www.inkscape.org/namespaces/inkscape"
   version="1.1"
   id="Capa_1"
   x="0px"
   y="0px"
   viewBox="0 0 488.3 488.3"
   style="enable-background:new 0 0 488.3 488.3;"
   xml:space="preserve"
   sodipodi:docname="copy_dark.svg"
   inkscape:version="0.92.3 (2405546, 2018-03-11)"><metadata
   id="metadata45"><rdf:RDF><cc:Work
       rdf:about=""><dc:format>image/svg+xml</dc:format><dc:type
         rdf:resource="http://purl.org/dc/dcmitype/StillImage" /><dc:title></dc:title></cc:Work></rdf:RDF></metadata><defs
   id="defs43" /><sodipodi:namedview
   pagecolor="#ffffff"
   bordercolor="#666666"
   borderopacity="1"
   objecttolerance="10"
   gridtolerance="10"
   guidetolerance="10"
   inkscape:pageopacity="0"
   inkscape:pageshadow="2"
   inkscape:window-width="1920"
   inkscape:window-height="1140"
   id="namedview41"
   showgrid="false"
   inkscape:zoom="0.48330945"
   inkscape:cx="244.14999"
   inkscape:cy="244.14999"
   inkscape:window-x="1920"
   inkscape:window-y="0"
   inkscape:window-maximized="1"
   inkscape:current-layer="g6" />
<g
   id="g8"
   transform="matrix(0.8729984,0,0,0.63983052,33.076509,88.969913)">
	<g
   id="g6">
		<path
   d="M 298.83521,101.56887 H 115.39412 c -17.212751,0 -31.193063,17.3 -31.193063,38.6 v 325.7 c 0,21.3 13.980312,38.6 31.193063,38.6 h 183.44109 c 17.21276,0 31.19307,-17.3 31.19307,-38.6 v -325.7 c -0.0808,-21.3 -14.06112,-38.6 -31.19307,-38.6 z m 9.29328,364.2 c 0,6.4 -4.20218,11.6 -9.37409,11.6 H 115.31331 c -5.1719,0 -9.37408,-5.2 -9.37408,-11.6 v -325.6 c 0,-6.4 4.20218,-11.6 9.37408,-11.6 H 298.7544 c 5.17191,0 9.37409,5.2 9.37409,11.6 z"
   id="path2"
   inkscape:connector-curvature="0"
   style="fill:#0b0b0b;fill-opacity:1;stroke-width:0.89894968" />
		<path
   d="M 382.38616,-16.168874 H 198.94507 c -17.21276,0 -31.19307,17.3000005 -31.19307,38.6 0,7.5 4.84867,13.5 10.90949,13.5 6.06083,0 10.9095,-6 10.9095,-13.5 0,-6.399999 4.20217,-11.6 9.37408,-11.6 h 183.44109 c 5.17191,0 9.37408,5.200001 9.37408,11.6 V 348.13112 c 0,6.4 -4.20217,11.6 -9.37408,11.6 -6.06083,0 -10.90949,6 -10.90949,13.5 0,7.5 4.84866,13.5 10.90949,13.5 17.21275,0 31.19306,-17.3 31.19306,-38.6 V 22.431126 c 0,-21.2999995 -13.98031,-38.6 -31.19306,-38.6 z"
   id="path4"
   inkscape:connector-curvature="0"
   style="fill:#0b0b0b;fill-opacity:1;stroke-width:0.89894968" />
	</g>
</g>
<g
   id="g10">
</g>
<g
   id="g12">
</g>
<g
   id="g14">
</g>
<g
   id="g16">
</g>
<g
   id="g18">
</g>
<g
   id="g20">
</g>
<g
   id="g22">
</g>
<g
   id="g24">
</g>
<g
   id="g26">
</g>
<g
   id="g28">
</g>
<g
   id="g30">
</g>
<g
   id="g32">
</g>
<g
   id="g34">
</g>
<g
   id="g36">
</g>
<g
   id="g38">
</g>
</svg>