<?xml version="1.0" encoding="UTF-8" standalone="no"?>
<svg
   xmlns:dc="http://purl.org/dc/elements/1.1/"
   xmlns:cc="http://creativecommons.org/ns#"
   xmlns:rdf="http://www.w3.org/1999/02/22-rdf-syntax-ns#"
   xmlns:svg="http://www.w3.org/2000/svg"
   xmlns="http://www.w3.org/2000/svg"
   xmlns:sodipodi="http://sodipodi.sourceforge.net/DTD/sodipodi-0.dtd"
   xmlns:inkscape="http://www.inkscape.org/namespaces/inkscape"
   height="512pt"
   viewBox="0 0 512 512"
   width="512pt"
   version="1.1"
   id="svg20"
   sodipodi:docname="overlay_video.svg"
   inkscape:version="0.92.5 (2060ec1f9f, 2020-04-08)">
  <metadata
     id="metadata26">
    <rdf:RDF>
      <cc:Work
         rdf:about="">
        <dc:format>image/svg+xml</dc:format>
        <dc:type
           rdf:resource="http://purl.org/dc/dcmitype/StillImage" />
        <dc:title></dc:title>
      </cc:Work>
    </rdf:RDF>
  </metadata>
  <defs
     id="defs24" />
  <sodipodi:namedview
     pagecolor="#ffffff"
     bordercolor="#666666"
     borderopacity="1"
     objecttolerance="10"
     gridtolerance="10"
     guidetolerance="10"
     inkscape:pageopacity="0"
     inkscape:pageshadow="2"
     inkscape:window-width="1920"
     inkscape:window-height="1140"
     id="namedview22"
     showgrid="false"
     inkscape:zoom="0.34570313"
     inkscape:cx="313.79045"
     inkscape:cy="290.71187"
     inkscape:window-x="1920"
     inkscape:window-y="0"
     inkscape:window-maximized="1"
     inkscape:current-layer="svg20" />
  <path
     d="m 392.4029,150.68257 v 223.6386 c 0,36.4283 -24.16181,65.96153 -53.96461,65.96153 H 70.450826 c -29.802805,0 -53.964613,-29.53323 -53.964613,-65.96153 v -223.6386 c 0,-36.4283 24.161808,-65.961515 53.964613,-65.961515 H 338.43829 c 29.8028,0 53.96461,29.533215 53.96461,65.961515 z m 0,0"
     id="path2"
     inkscape:connector-curvature="0"
     style="fill:#3a3d51;stroke-width:1.72601938" />
  <path
     d="m 505.39989,147.86492 v 236.12425 c 0,12.97763 -11.44056,21.13244 -20.67964,14.75171 L 403.7703,342.83496 392.4029,334.9783 V 196.86087 l 11.3674,-7.85665 80.94995,-55.89099 c 9.23908,-6.37327 20.67964,1.78152 20.67964,14.75169 z m 0,0"
     id="path4"
     inkscape:connector-curvature="0"
     style="fill:#65687f;stroke-width:1.72601938" />
  <path
     d="m 403.77578,253.5776 v -64.55557 l -11.36677,7.85608 -16.31842,68.90102 16.31231,69.1992 v 0.007 l 5.68339,3.92804 5.68949,3.92805 80.9395,55.90196 c 9.23857,6.38027 20.6785,-1.78141 20.6785,-14.75066 V 303.4642 l -75.72566,-13.34939 c -14.86096,-2.61633 -25.89234,-18.18689 -25.89234,-36.53765 z m 0,0"
     id="path6"
     inkscape:connector-curvature="0"
     style="fill:#3a3d51;stroke-width:1.72591186" />
  <path
     d="m 392.4029,150.68257 v 223.6386 c 0,36.4283 -24.16181,65.96153 -53.96461,65.96153 H 117.21934 c -29.802796,0 -53.964605,-29.53323 -53.964605,-65.96153 v -223.6386 c 0,-36.4283 24.161809,-65.961515 53.964605,-65.961515 h 221.21895 c 29.8028,0 53.96461,29.533215 53.96461,65.961515 z m 0,0"
     id="path8"
     inkscape:connector-curvature="0"
     style="fill:#65687f;stroke-width:1.72601938" />
  <path
     d="m 177.48909,262.51446 c 0,28.33113 -18.78811,51.29565 -41.96682,51.29565 -23.17872,0 -41.966829,-22.96452 -41.966829,-51.29565 0,-28.3311 18.788109,-51.29563 41.966829,-51.29563 23.17871,0 41.96682,22.96453 41.96682,51.29563 z m 0,0"
     id="path10"
     inkscape:connector-curvature="0"
     style="fill:#ffffff;stroke-width:1.72591186" />
  <path
     d="m 135.52227,328.76947 c -29.88656,0 -54.199528,-29.72494 -54.199528,-66.25501 0,-36.53006 24.312968,-66.24755 54.199528,-66.24755 29.88659,0 54.20562,29.71749 54.20562,66.24755 0,36.53007 -24.31903,66.25501 -54.20562,66.25501 z m 0,-102.59875 c -16.39158,0 -29.73413,16.30848 -29.73413,36.34374 0,20.04271 13.34255,36.34373 29.73413,36.34373 16.39767,0 29.73413,-16.30102 29.73413,-36.34373 0,-20.03526 -13.33646,-36.34374 -29.73413,-36.34374 z m 0,0"
     id="path12"
     inkscape:connector-curvature="0"
     style="fill:#3a3d51;stroke-width:1.72591186" />
  <path
     d="m 321.67154,262.51446 c 0,28.33113 -18.7942,51.29565 -41.97292,51.29565 -23.17261,0 -41.96682,-22.96452 -41.96682,-51.29565 0,-28.3311 18.79421,-51.29563 41.96682,-51.29563 23.17872,0 41.97292,22.96453 41.97292,51.29563 z m 0,0"
     id="path14"
     inkscape:connector-curvature="0"
     style="fill:#ffffff;stroke-width:1.72591186" />
  <path
     d="m 279.69862,328.76947 c -29.88657,0 -54.19952,-29.72494 -54.19952,-66.25501 0,-36.53006 24.31295,-66.24755 54.19952,-66.24755 29.88658,0 54.20563,29.71749 54.20563,66.24755 0,36.53007 -24.31905,66.25501 -54.20563,66.25501 z m 0,-102.59875 c -16.39157,0 -29.73413,16.30848 -29.73413,36.34374 0,20.04271 13.34256,36.34373 29.73413,36.34373 16.39768,0 29.73414,-16.30102 29.73414,-36.34373 0,-20.03526 -13.33646,-36.34374 -29.73414,-36.34374 z m 0,0"
     id="path16"
     inkscape:connector-curvature="0"
     style="fill:#3a3d51;stroke-width:1.72591186" />
</svg>
